<svg width="48" height="49" viewBox="0 0 48 49" fill="none" xmlns="http://www.w3.org/2000/svg">
<rect width="48" height="49" fill="#1E1E1E"/>
<g clip-path="url(#clip0_191_6)">
<rect width="1440" height="12700" transform="translate(-696 -7005)" fill="#B5273C"/>
<rect x="-664" y="-2620" width="1376" height="7689.01" rx="48" fill="#020202"/>
<rect x="-199" y="-198.2" width="446" height="446" rx="223" fill="#1A1919"/>
<path d="M8 34.7998L15.1792 28.3385C16.7605 26.9154 19.1792 26.979 20.6835 28.4833L23 30.7998L30.1716 23.6282C31.7337 22.0661 34.2663 22.0661 35.8284 23.6282L40 27.7998M22 18.7998C22 19.9044 21.1046 20.7998 20 20.7998C18.8954 20.7998 18 19.9044 18 18.7998C18 17.6952 18.8954 16.7998 20 16.7998C21.1046 16.7998 22 17.6952 22 18.7998ZM12 40.7998H36C38.2091 40.7998 40 39.0089 40 36.7998V12.7998C40 10.5907 38.2091 8.7998 36 8.7998H12C9.79086 8.7998 8 10.5907 8 12.7998V36.7998C8 39.0089 9.79086 40.7998 12 40.7998Z" stroke="#FFFAFF" stroke-opacity="0.7" stroke-width="4" stroke-linecap="round" stroke-linejoin="round"/>
</g>
<defs>
<clipPath id="clip0_191_6">
<rect width="1440" height="12700" fill="white" transform="translate(-696 -7005)"/>
</clipPath>
</defs>
</svg>
