<svg width="214" height="46" viewBox="0 0 214 46" fill="none" xmlns="http://www.w3.org/2000/svg">
<g clip-path="url(#clip0_208_178)">
<path d="M34.6296 20.6447L34.5883 20.7169C33.7113 21.9034 32.009 22.378 30.74 23.0692C25.4266 25.5247 19.587 27.0104 13.4379 27.3303C12.8189 27.3509 11.9006 27.3303 11.4879 27.0414C10.8689 26.4636 11.5498 25.3597 11.7562 24.5033C12.2617 22.9145 13.0665 20.4177 13.4585 19.2209C14.1188 17.1677 14.9855 14.4749 15.7077 12.2361C16.2752 10.8742 16.3164 9.13059 17.472 8.37743C18.4315 7.89252 19.2156 8.40838 20.1751 9.16154C20.9076 9.71868 21.6195 10.4202 21.5679 11.029C21.5576 11.4829 21.2584 11.9266 21.1243 12.3496C21.052 12.5662 21.0417 12.7107 21.1552 12.7726C21.6505 12.8861 22.2695 12.4424 22.6925 12.1536C23.5798 11.4623 24.0337 11.0909 25.2615 10.121C26.9019 8.82107 28.7075 7.38697 30.3273 6.09731C31.328 5.35447 31.6892 4.85924 32.5145 4.76639C34.2891 4.75607 34.1653 6.87111 34.0518 8.17109C33.897 11.6274 34.1653 15.29 34.7843 18.6844C34.8875 19.3447 34.9494 20.0772 34.6296 20.6447Z" fill="#FFFCFF"/>
<path d="M42.2849 7.12924C37.6731 2.55869 31.3177 -0.0309445 24.7662 7.28245e-06H24.5702C18.0806 7.28245e-06 11.7665 2.59996 7.19591 7.12924C2.88329 11.4109 0.510317 17.0338 0.5 22.9662C0.510317 28.9709 2.88329 34.5938 7.19591 38.8652C11.7665 43.4048 18.0806 46.0047 24.5392 46.0047H24.8797C31.4002 46.0047 37.7144 43.4048 42.2849 38.8652C46.5976 34.5938 48.9705 28.9606 48.9808 23.0281C48.9705 17.0338 46.5976 11.4109 42.2849 7.12924ZM28.9138 43.9103C27.5003 44.1992 26.0971 44.3436 24.7353 44.3436C23.3734 44.3436 21.9806 44.1992 20.5568 43.9103C15.5013 42.7238 11.622 39.9485 8.96016 36.3477C16.8116 36.42 24.8178 34.1295 31.328 30.4153C33.3502 29.105 35.9811 28.5582 38.158 29.8582C39.8191 30.7971 40.9437 32.5613 41.0778 34.4906C41.1088 34.8002 41.1191 35.12 41.15 35.4501C38.4882 39.4842 34.3819 42.631 28.9138 43.9103ZM45.1325 24.7099L44.5444 24.2869C43.3682 23.4202 41.9032 22.925 40.5207 22.925H40.5104C38.6945 22.925 36.7962 23.0075 35.3414 24.0083C28.0987 28.2177 19.5147 30.4153 11.1268 30.209C9.13555 30.0129 8.42366 30.5907 7.03083 31.7566L6.2364 32.4169L6.04037 31.932C4.89516 29.1463 4.29675 26.0614 4.29675 22.9972C4.29675 14.2894 9.30063 4.33326 20.4742 1.72299C23.3115 1.12459 26.159 1.12459 28.9963 1.71267C40.6239 4.43643 45.5246 15.1664 45.1635 23.9877L45.1325 24.7099Z" fill="#FFFCFF"/>
<path d="M160.201 34.4702C158.561 34.4702 157.188 34.1195 156.084 33.4076C154.981 32.6957 154.155 31.7465 153.608 30.5394C153.061 29.3322 152.793 27.9807 152.793 26.495C152.793 25.0093 153.02 23.7196 153.464 22.4094C153.908 21.0991 154.568 19.9332 155.424 18.8808C156.28 17.8388 157.312 17.0134 158.519 16.4047C159.726 15.796 161.078 15.4865 162.564 15.4865C164.328 15.4865 165.814 15.9301 167.021 16.8071C168.228 17.6944 169.033 19.0047 169.425 20.738L166.556 21.6356C166.36 20.5935 165.927 19.7578 165.267 19.1388C164.607 18.5197 163.699 18.2102 162.522 18.2102C161.449 18.2102 160.511 18.4578 159.685 18.9531C158.86 19.4483 158.169 20.1086 157.601 20.934C157.034 21.749 156.6 22.6466 156.311 23.6165C156.023 24.5863 155.878 25.5561 155.878 26.5259C155.878 27.4958 156.023 28.3315 156.322 29.1156C156.621 29.8997 157.096 30.529 157.735 31.0036C158.385 31.4782 159.211 31.7155 160.232 31.7155C161.501 31.7155 162.584 31.3854 163.482 30.7251C164.38 30.0648 165.071 29.1981 165.566 28.1354L168.249 29.4045C167.382 31.1481 166.237 32.4274 164.833 33.2425C163.43 34.0575 161.883 34.4702 160.191 34.4702H160.201Z" fill="#FFFCFF"/>
<path d="M178.215 34.4702C176.647 34.4702 175.275 34.1298 174.098 33.4488C172.912 32.7679 171.994 31.8187 171.344 30.6116C170.683 29.4045 170.353 28.0116 170.353 26.4125C170.353 24.968 170.601 23.5958 171.096 22.2959C171.591 20.9856 172.293 19.83 173.201 18.8086C174.109 17.7872 175.182 16.9825 176.43 16.3841C177.679 15.7857 179.051 15.4865 180.567 15.4865C182.156 15.4865 183.539 15.8269 184.705 16.4976C185.87 17.1682 186.778 18.0967 187.428 19.2935C188.078 20.4903 188.398 21.8832 188.398 23.472C188.398 24.9371 188.151 26.3402 187.655 27.6712C187.16 29.0021 186.448 30.1783 185.53 31.1997C184.612 32.2211 183.539 33.0258 182.301 33.6036C181.073 34.1917 179.711 34.4806 178.215 34.4806V34.4702ZM178.298 31.6743C179.412 31.6743 180.402 31.437 181.259 30.9624C182.115 30.4878 182.847 29.8584 183.456 29.0743C184.065 28.2902 184.529 27.4132 184.839 26.4228C185.148 25.4323 185.303 24.4315 185.303 23.3792C185.303 21.7903 184.88 20.5316 184.034 19.6134C183.188 18.6951 182.012 18.2309 180.495 18.2309C179.35 18.2309 178.339 18.4785 177.452 18.9634C176.564 19.4483 175.832 20.0983 175.233 20.903C174.635 21.7078 174.191 22.6054 173.892 23.5649C173.593 24.5244 173.448 25.5149 173.448 26.5156C173.448 28.1045 173.882 29.3632 174.738 30.2814C175.594 31.1997 176.781 31.6639 178.298 31.6639V31.6743Z" fill="#FFFCFF"/>
<path d="M189.781 34.171L192.35 15.7856H195.517L192.907 34.171H189.77H189.781ZM192.835 10.369L192.917 9.77062C193.041 8.8627 193.825 8.18176 194.743 8.18176C195.868 8.18176 196.724 9.17222 196.569 10.2865L196.487 10.8849C196.363 11.7928 195.579 12.4737 194.661 12.4737C193.536 12.4737 192.68 11.4833 192.835 10.369Z" fill="#FFFCFF"/>
<path d="M196.528 34.171L199.138 15.7857H202.275L201.718 19.7062L200.933 19.634C201.408 18.6848 201.986 17.911 202.687 17.3023C203.379 16.6936 204.163 16.2396 205.04 15.9404C205.906 15.6412 206.835 15.4968 207.805 15.4968C209.621 15.4968 211.024 15.9714 212.014 16.9103C213.005 17.8594 213.51 19.2316 213.51 21.0475C213.51 21.3261 213.51 21.584 213.49 21.8316C213.479 22.0792 213.448 22.3371 213.397 22.6157L211.798 34.1814H208.63L210.126 23.5855C210.178 23.2863 210.209 23.0181 210.219 22.7705C210.229 22.5229 210.24 22.234 210.24 21.9141C210.24 20.6451 209.961 19.7166 209.404 19.1182C208.847 18.5198 208.021 18.2206 206.928 18.2206C205.339 18.2206 204.039 18.7777 203.028 19.9023C202.017 21.0165 201.346 22.7602 200.995 25.1228L199.726 34.1814H196.559L196.528 34.171Z" fill="#FFFCFF"/>
<path d="M77.4565 27.7947C77.4565 29.6828 76.8374 31.3026 75.6097 32.6438C74.3819 33.9851 72.7931 34.7898 70.8534 35.0684V38.1636C70.8534 38.535 70.8225 38.762 70.7606 38.8548C70.6987 38.9374 70.5748 38.989 70.4098 38.989C70.059 38.989 69.8836 38.7104 69.8836 38.1739V35.1509C68.1916 35.1303 66.7987 34.7898 65.7051 34.1398C63.9924 33.1494 63.1361 31.8288 63.1361 30.1883C63.1361 29.3629 63.3528 28.6923 63.7861 28.1765C64.2194 27.6503 64.7869 27.3923 65.4884 27.3923C66.0868 27.3923 66.5821 27.5781 66.9844 27.9495C67.3868 28.3209 67.5828 28.7852 67.5828 29.332C67.5828 30.6526 66.9328 31.3129 65.6432 31.3129H64.8178C64.6424 31.3129 64.5599 31.3954 64.5599 31.5708C64.5599 32.2724 65.117 32.9327 66.2416 33.5414C67.3559 34.1502 68.5733 34.4494 69.8939 34.4494V23.6678C68.305 22.925 66.9638 22.0893 65.8702 21.171C64.4258 19.9742 63.7035 18.4576 63.7035 16.6211C63.7035 14.9085 64.2916 13.4537 65.4575 12.2569C66.6233 11.0601 68.109 10.4101 69.8939 10.276V7.707C69.8939 7.26336 70.059 7.03638 70.3788 7.03638C70.6987 7.03638 70.8637 7.28399 70.8637 7.77922V10.245C72.5042 10.3173 73.7732 10.73 74.6708 11.4728C75.9089 12.5148 76.5382 13.7116 76.5382 15.0529C76.5382 15.7029 76.3422 16.2394 75.9605 16.6727C75.5787 17.106 75.0938 17.3227 74.5264 17.3227C73.2573 17.3227 72.628 16.7243 72.628 15.5275C72.628 14.3307 73.2883 13.7013 74.6089 13.6291C74.8359 13.6291 74.9494 13.5569 74.9494 13.4021C74.9494 12.7831 74.4645 12.1744 73.4946 11.576C72.8962 11.2046 72.0296 11.0085 70.8844 10.9776V20.2631C73.443 21.5115 75.0938 22.5639 75.847 23.4305C76.9406 24.6995 77.4874 26.1543 77.4874 27.7947H77.4565ZM69.8836 19.8092V11.0807C67.7479 11.5553 66.6749 12.845 66.6749 14.96C66.6749 16.2291 66.9122 17.2195 67.3868 17.9211C67.8614 18.633 68.6971 19.2623 69.8836 19.8092ZM74.4748 29.5074C74.4748 28.1868 74.2168 27.1551 73.7113 26.3916C73.2057 25.6384 72.2462 24.8956 70.8534 24.1734V34.3152C73.2677 33.8716 74.4748 32.2621 74.4748 29.5074Z" fill="#FFFCFF"/>
<path d="M106.015 34.7175C106.015 34.9342 105.757 35.0373 105.231 35.0373H95.9348C95.4189 35.0373 95.1506 34.9238 95.1506 34.6969C95.1506 34.4493 95.5117 34.3254 96.234 34.3254C97.503 34.3254 98.2768 34.1913 98.545 33.9128C98.6688 33.7889 98.7307 32.9533 98.7307 31.4057V12.0505C98.7307 12.0505 98.576 12.5147 98.2871 13.3608C97.2863 16.3631 95.8419 20.8924 93.9435 26.928L92.2102 32.8604C91.8594 34.0262 91.6118 34.6143 91.4674 34.6143C91.292 34.6143 91.1063 34.3151 90.9102 33.7167C90.188 31.4572 88.1659 25.8034 84.8231 16.7758L83.3374 12.7933C83.3374 13.2679 83.3374 13.9076 83.3374 14.733V26.8557C83.3374 31.4057 83.3786 33.7064 83.4509 33.758C83.6263 34.0778 84.2247 34.2429 85.2461 34.2429C86.0611 34.2429 86.4738 34.3667 86.4738 34.6143C86.4738 34.8929 86.2159 35.027 85.6897 35.027C85.3699 35.027 85.0707 35.0064 84.7921 34.9548C84.4413 34.9032 84.1318 34.8826 83.8636 34.8826L79.5716 35.027C79.1279 35.027 78.9009 34.9135 78.9009 34.6865C78.9009 34.4389 79.6128 34.3048 81.0263 34.2739C81.6247 34.2739 81.9755 34.1707 82.0683 33.9747C82.1715 33.7786 82.2128 33.1286 82.2128 32.035V14.1552C82.2128 12.0917 82.1921 10.9671 82.1406 10.7918C82.0374 10.441 81.831 10.2037 81.5112 10.0799C81.1914 9.95606 80.4898 9.85288 79.4271 9.78066C79.0248 9.76003 78.8287 9.64654 78.8287 9.44019C78.8287 9.17194 79.1898 9.0275 79.9224 9.0275H82.5223C84.008 9.0275 85.05 9.0275 85.6588 8.99655C85.7826 9.31639 86.5048 11.2767 87.8254 14.8671C88.3928 16.3631 89.9817 20.717 92.592 27.9287C93.0666 26.3089 93.5412 24.7201 94.0364 23.1518L98.0188 10.8227C98.2665 10.1108 98.4831 9.52273 98.6791 9.05845L104.209 9.01719C105.024 9.01719 105.489 9.05846 105.612 9.13068C105.736 9.2029 105.798 9.31639 105.798 9.47115C105.798 9.71876 105.581 9.84257 105.169 9.84257C104.477 9.84257 104.003 9.8632 103.755 9.91479C103.157 10.018 102.744 10.214 102.527 10.5132C102.404 10.6886 102.342 12.1433 102.342 14.8877V32.2826C102.342 33.2834 102.445 33.8715 102.641 34.0366C102.961 34.2635 103.776 34.377 105.066 34.377H105.293C105.788 34.377 106.035 34.4802 106.035 34.6969L106.015 34.7175Z" fill="#FFFCFF"/>
<path d="M147.923 28.1661C147.923 30.7041 146.768 32.5819 144.457 33.7993C143.343 34.3977 141.733 34.7691 139.649 34.9136C139.082 34.9342 137.389 34.9548 134.573 34.9548H130.023C129.6 34.9548 129.394 34.8517 129.394 34.635C129.394 34.4183 129.775 34.3152 130.549 34.3152C131.447 34.3152 131.973 34.2223 132.138 34.0366C132.303 33.8509 132.375 33.2834 132.375 32.3446V12.164C132.375 11.0704 132.324 10.441 132.231 10.2656C132.055 9.96642 131.426 9.80134 130.332 9.78071C129.662 9.78071 129.321 9.64658 129.321 9.38865C129.321 9.15135 129.631 9.03786 130.25 9.03786H130.694C130.972 9.11009 131.22 9.15135 131.436 9.15135H138.71C141.393 9.17199 143.394 9.62595 144.715 10.4926C146.252 11.514 147.026 12.9894 147.026 14.929C147.026 16.6211 146.396 18.0036 145.127 19.0869C143.858 20.1702 142.084 20.8511 139.793 21.1194V21.3464C142.053 21.4908 143.817 21.9654 145.086 22.7598C146.974 23.9566 147.923 25.7518 147.923 28.1661ZM142.92 15.3004C142.92 12.9172 142.373 11.318 141.279 10.5236C140.712 10.1005 139.628 9.8942 138.029 9.8942C137.606 9.8942 136.946 9.93547 136.048 10.0077V20.8202H136.389L138.442 20.748C139.855 20.6964 140.959 20.1908 141.743 19.2416C142.527 18.2821 142.92 16.9718 142.92 15.3108V15.3004ZM144.003 27.7534C144.003 24.6169 142.734 22.6773 140.196 21.9345C139.453 21.7075 138.07 21.594 136.059 21.594V32.7057C136.059 33.4279 136.131 33.8406 136.286 33.9334C136.533 34.1088 137.235 34.1914 138.37 34.1914C140.082 34.1914 141.454 33.6445 142.476 32.5509C143.497 31.4573 144.003 29.8478 144.003 27.7431V27.7534Z" fill="#FFFCFF"/>
<path d="M129.105 22.1923C128.156 25.8859 126.247 29.012 123.368 31.5707C120.49 34.1294 117.436 35.4087 114.207 35.4087C110.771 35.4087 108.223 34.1088 106.551 31.5191C104.88 28.9295 104.529 25.7311 105.499 21.9344C106.489 18.0654 108.419 14.898 111.308 12.4219C114.186 9.95604 117.384 8.71796 120.892 8.71796C124.204 8.71796 126.639 10.0076 128.218 12.5869C129.796 15.1663 130.095 18.3646 129.125 22.1923H129.105ZM124.875 22.378C126.041 17.8281 126.01 14.279 124.792 11.7409C124.029 10.1521 122.605 9.34732 120.521 9.34732C118.437 9.34732 116.838 9.95604 115.424 11.1735C112.834 13.4123 110.905 17.0543 109.605 22.1098C108.584 26.1129 108.491 29.2287 109.327 31.4469C110.162 33.6651 111.854 34.7691 114.392 34.7691C116.755 34.7691 118.798 33.727 120.531 31.6326C122.44 29.3215 123.884 26.2367 124.875 22.378Z" fill="#FFFCFF"/>
</g>
<defs>
<clipPath id="clip0_208_178">
<rect width="213" height="46.0047" fill="white" transform="translate(0.5)"/>
</clipPath>
</defs>
</svg>
