<svg width="64" height="64" viewBox="0 0 64 64" fill="none" xmlns="http://www.w3.org/2000/svg">
<path fill-rule="evenodd" clip-rule="evenodd" d="M21.5338 11.1758C23.137 11.1758 24.6516 11.9122 25.6422 13.1729L34.0807 23.9131L44.6881 12.0508C45.6543 10.9705 47.3134 10.878 48.3942 11.8438C49.4748 12.81 49.5684 14.47 48.6022 15.5508L37.3756 28.1064L53.4616 48.5791L53.5719 48.7305C54.0945 49.5029 54.1702 50.5013 53.7584 51.3486C53.3191 52.252 52.4026 52.826 51.3981 52.8262H42.4645C40.8614 52.8259 39.3465 52.0897 38.3561 50.8291L28.3307 38.0693L15.9879 51.9453C15.0244 53.0282 13.365 53.1255 12.2819 52.1621C11.199 51.1986 11.1017 49.5392 12.0651 48.4561L25.0348 33.875L10.5367 15.4229C9.91617 14.6328 9.8008 13.557 10.2399 12.6533C10.6791 11.7496 11.5964 11.1759 12.6012 11.1758H21.5338ZM42.2223 51.8184L42.4645 51.8262C42.3027 51.8262 42.1429 51.8161 41.984 51.7979C42.063 51.8069 42.1425 51.8138 42.2223 51.8184ZM12.9459 51.415C12.9879 51.4523 13.0313 51.4874 13.0758 51.5195C13.1202 51.5517 13.1659 51.5814 13.2125 51.6084C13.3062 51.6627 13.4043 51.7063 13.5045 51.7402C13.3045 51.6725 13.1136 51.5642 12.9459 51.415C12.904 51.3778 12.8651 51.3392 12.8278 51.2988L12.9459 51.415ZM15.1237 51.3994C15.0833 51.4365 15.0418 51.4716 14.9987 51.5039L15.1237 51.3994C15.164 51.3624 15.2037 51.323 15.2409 51.2812L15.1237 51.3994ZM22.2272 15.7158C22.253 15.7419 22.2775 15.7696 22.3004 15.7988C22.2542 15.74 22.2025 15.6876 22.1451 15.6416L22.2272 15.7158ZM41.7721 48.2871C41.7812 48.2963 41.792 48.3037 41.8014 48.3125C41.7884 48.3004 41.7747 48.2892 41.7623 48.2764L41.7721 48.2871ZM42.4782 47.5762H45.9977L21.5221 16.4258H18.0026L42.4782 47.5762ZM11.1393 13.0908L11.0924 13.1963C11.1067 13.1606 11.1223 13.1257 11.1393 13.0908Z" fill="#020202"/>
</svg>
